<svg width="250" height="90" viewBox="0 0 250 90" fill="none" xmlns="http://www.w3.org/2000/svg">
<g clip-path="url(#clip0_29_206)">
<path d="M74.0361 23.207C61.9549 23.207 52.1606 33.001 52.1606 45.0822C52.1606 57.1639 61.9549 66.957 74.0361 66.957C86.1186 66.957 95.9117 57.1639 95.9117 45.0822C95.9117 33.0018 86.1186 23.2081 74.0358 23.2081L74.0361 23.207ZM84.068 54.7572C83.6761 55.3999 82.835 55.6036 82.1924 55.2092C77.0563 52.0719 70.5906 51.3614 62.976 53.1011C62.2422 53.2683 61.5108 52.8085 61.3436 52.0745C61.1756 51.3405 61.6336 50.6091 62.3692 50.4419C70.7021 48.5381 77.8499 49.3578 83.6161 52.8817C84.2587 53.2761 84.4624 54.1146 84.068 54.7572ZM86.7455 48.8009C86.2518 49.6034 85.2017 49.8568 84.3997 49.363C78.5196 45.7488 69.5564 44.7021 62.6014 46.8133C61.6994 47.0857 60.7467 46.5774 60.4729 45.677C60.2013 44.775 60.7099 43.8241 61.6103 43.5498C69.5548 41.1393 79.4313 42.307 86.1839 46.4564C86.9858 46.9501 87.2392 48.0003 86.7455 48.8012V48.8009ZM86.9754 42.5985C79.925 38.4109 68.2929 38.0258 61.5615 40.0688C60.4805 40.3967 59.3374 39.7864 59.0099 38.7055C58.6823 37.6241 59.292 36.4817 60.3737 36.1531C68.1009 33.8074 80.9464 34.2606 89.0636 39.0793C90.0379 39.6564 90.3566 40.912 89.7793 41.883C89.2046 42.8553 87.9455 43.1758 86.9764 42.5985H86.9754ZM111.676 43.4009C107.899 42.5003 107.228 41.8681 107.228 40.5398C107.228 39.2849 108.409 38.4404 110.167 38.4404C111.87 38.4404 113.557 39.0817 115.328 40.4019C115.381 40.4418 115.448 40.4578 115.514 40.4473C115.582 40.4374 115.639 40.4011 115.678 40.3465L117.523 37.7468C117.598 37.6397 117.577 37.4921 117.475 37.4104C115.367 35.7195 112.996 34.8974 110.221 34.8974C106.144 34.8974 103.294 37.3448 103.294 40.8465C103.294 44.6015 105.752 45.9311 109.999 46.9575C113.612 47.79 114.223 48.4874 114.223 49.734C114.223 51.1158 112.99 51.9752 111.005 51.9752C108.8 51.9752 107.001 51.2308 104.989 49.491C104.94 49.4466 104.872 49.4283 104.809 49.431C104.741 49.4362 104.681 49.4675 104.639 49.5172L102.57 51.9779C102.484 52.0823 102.494 52.2339 102.594 52.3227C104.934 54.4124 107.813 55.5148 110.921 55.5148C115.315 55.5148 118.155 53.1142 118.155 49.397C118.163 46.2605 116.284 44.5234 111.684 43.4043L111.676 43.4009ZM128.097 39.6759C126.192 39.6759 124.63 40.4262 123.34 41.9634V40.2331C123.34 40.0965 123.23 39.9852 123.094 39.9852H119.712C119.576 39.9852 119.466 40.0965 119.466 40.2331V59.4592C119.466 59.5951 119.576 59.7074 119.712 59.7074H123.094C123.23 59.7074 123.34 59.5951 123.34 59.4592V53.3911C124.63 54.8356 126.192 55.5435 128.097 55.5435C131.636 55.5435 135.22 52.819 135.22 47.6105C135.225 42.401 131.642 39.6757 128.099 39.6757L128.097 39.6759ZM131.286 47.6105C131.286 50.2616 129.654 52.1137 127.313 52.1137C125.001 52.1137 123.256 50.1781 123.256 47.6105C123.256 45.0427 125.001 43.1076 127.313 43.1076C129.614 43.1073 131.286 45.0007 131.286 47.6103V47.6105ZM144.402 39.6759C139.844 39.6759 136.273 43.1857 136.273 47.6672C136.273 52.1006 139.82 55.5723 144.347 55.5723C148.921 55.5723 152.503 52.0745 152.503 47.6105C152.503 43.1617 148.945 39.6765 144.402 39.6765V39.6759ZM144.402 52.1398C141.978 52.1398 140.149 50.1911 140.149 47.6092C140.149 45.0156 141.915 43.1335 144.347 43.1335C146.787 43.1335 148.626 45.0814 148.626 47.6659C148.626 50.259 146.85 52.1398 144.402 52.1398ZM162.236 39.9852H158.513V36.1803C158.513 36.0439 158.404 35.9327 158.268 35.9327H154.885C154.749 35.9327 154.637 36.0439 154.637 36.1803V39.9852H153.012C152.876 39.9852 152.766 40.0965 152.766 40.2331V43.1397C152.766 43.2761 152.876 43.3876 153.012 43.3876H154.637V50.9095C154.637 53.9475 156.149 55.4887 159.135 55.4887C160.347 55.4887 161.353 55.2379 162.301 54.6998C162.379 54.658 162.426 54.5744 162.426 54.4856V51.7166C162.426 51.6331 162.382 51.5521 162.309 51.5077C162.236 51.4606 162.144 51.458 162.068 51.4972C161.418 51.8237 160.789 51.9752 160.083 51.9752C158.999 51.9752 158.513 51.4815 158.513 50.3792V43.3889H162.236C162.372 43.3889 162.481 43.2776 162.481 43.141V40.2347C162.486 40.0981 162.377 39.9868 162.238 39.9868L162.236 39.9852ZM175.203 40.0001V39.5328C175.203 38.158 175.73 37.5449 176.911 37.5449C177.616 37.5449 178.183 37.6849 178.818 37.8965C178.896 37.9211 178.977 37.9088 179.04 37.862C179.105 37.8153 179.142 37.7403 179.142 37.6609V34.811C179.142 34.702 179.074 34.6057 178.967 34.5735C178.298 34.3742 177.441 34.1697 176.156 34.1697C173.035 34.1697 171.381 35.9287 171.381 39.2549V39.9706H169.756C169.62 39.9706 169.508 40.0819 169.508 40.2182V43.1397C169.508 43.2761 169.62 43.3876 169.756 43.3876H171.381V54.9871C171.381 55.1256 171.493 55.2353 171.629 55.2353H175.009C175.148 55.2353 175.258 55.1256 175.258 54.9871V43.3884H178.416L183.253 54.9871C182.705 56.2044 182.164 56.4473 181.428 56.4473C180.832 56.4473 180.202 56.2697 179.562 55.9171C179.502 55.8857 179.429 55.8805 179.367 55.8988C179.301 55.9223 179.246 55.9693 179.22 56.032L178.073 58.5476C178.019 58.6677 178.066 58.8062 178.181 58.8689C179.377 59.5167 180.456 59.7936 181.791 59.7936C184.288 59.7936 185.67 58.6285 186.884 55.4991L192.751 40.3387C192.783 40.2624 192.772 40.1762 192.725 40.1085C192.681 40.0414 192.605 40.0009 192.524 40.0009H189.003C188.896 40.0009 188.802 40.068 188.768 40.167L185.16 50.468L181.211 40.1602C181.174 40.0644 181.083 40.0009 180.981 40.0009H175.203V40.0001ZM167.685 39.9852H164.302C164.166 39.9852 164.054 40.0965 164.054 40.2331V54.9871C164.054 55.1256 164.166 55.2353 164.302 55.2353H167.685C167.821 55.2353 167.933 55.1256 167.933 54.9871V40.2342C167.933 40.0976 167.823 39.9863 167.685 39.9863V39.9852ZM166.013 33.2669C164.673 33.2669 163.586 34.3515 163.586 35.6913C163.586 37.0319 164.673 38.1178 166.013 38.1178C167.353 38.1178 168.437 37.0319 168.437 35.6913C168.437 34.3517 167.35 33.2669 166.013 33.2669ZM195.641 44.7293C194.303 44.7293 193.261 43.6543 193.261 42.349C193.261 41.0437 194.316 39.9565 195.654 39.9565C196.991 39.9565 198.033 41.0312 198.033 42.3354C198.033 43.6407 196.978 44.7293 195.641 44.7293ZM195.654 40.1932C194.434 40.1932 193.512 41.1623 193.512 42.349C193.512 43.5352 194.429 44.4913 195.641 44.4913C196.86 44.4913 197.783 43.5229 197.783 42.3354C197.783 41.1492 196.866 40.1932 195.654 40.1932ZM196.181 42.5802L196.855 43.5227H196.286L195.68 42.658H195.16V43.5227H194.685V41.0244H195.797C196.38 41.0244 196.761 41.3214 196.761 41.8213C196.764 42.2309 196.526 42.4812 196.184 42.5802H196.181ZM195.779 41.453H195.16V42.2432H195.779C196.087 42.2432 196.273 42.092 196.273 41.8477C196.273 41.5907 196.087 41.453 195.779 41.453Z" fill="#E6E6E6"/>
</g>
<defs>
<clipPath id="clip0_29_206">
<rect width="145.833" height="50" fill="white" transform="translate(52.0833 20)"/>
</clipPath>
</defs>
</svg>
