<svg width="18" height="22" viewBox="0 0 18 22" fill="none" xmlns="http://www.w3.org/2000/svg">
<path d="M18 5.375C18 8.06739 13.9706 10.25 9 10.25C4.02944 10.25 0 8.06739 0 5.375C0 2.68261 4.02944 0.5 9 0.5C13.9706 0.5 18 2.68261 18 5.375Z" fill="#9EFF00"/>
<path d="M18 5.375C18 8.06739 13.9706 10.25 9 10.25C4.02944 10.25 0 8.06739 0 5.375C0 2.68261 4.02944 0.5 9 0.5C13.9706 0.5 18 2.68261 18 5.375Z" fill="black" fill-opacity="0.2"/>
<path d="M9 11.75C11.6852 11.75 14.1905 11.1637 16.0784 10.1411C16.7684 9.76734 17.4248 9.30434 17.9747 8.75674C17.9915 8.87831 18 9.00111 18 9.125C18 11.8174 13.9706 14 9 14C4.02944 14 0 11.8174 0 9.125C0 9.00111 0.00853154 8.8783 0.0252937 8.75674C0.575227 9.30434 1.23162 9.76734 1.92161 10.1411C3.80949 11.1637 6.31481 11.75 9 11.75Z" fill="#9EFF00"/>
<path d="M9 11.75C11.6852 11.75 14.1905 11.1637 16.0784 10.1411C16.7684 9.76734 17.4248 9.30434 17.9747 8.75674C17.9915 8.87831 18 9.00111 18 9.125C18 11.8174 13.9706 14 9 14C4.02944 14 0 11.8174 0 9.125C0 9.00111 0.00853154 8.8783 0.0252937 8.75674C0.575227 9.30434 1.23162 9.76734 1.92161 10.1411C3.80949 11.1637 6.31481 11.75 9 11.75Z" fill="black" fill-opacity="0.2"/>
<path d="M9 15.5C11.6852 15.5 14.1905 14.9137 16.0784 13.8911C16.7684 13.5173 17.4248 13.0543 17.9747 12.5067C17.9915 12.6283 18 12.7511 18 12.875C18 15.5674 13.9706 17.75 9 17.75C4.02944 17.75 0 15.5674 0 12.875C0 12.7511 0.00853154 12.6283 0.0252937 12.5067C0.575227 13.0543 1.23162 13.5173 1.92161 13.8911C3.80949 14.9137 6.31481 15.5 9 15.5Z" fill="#9EFF00"/>
<path d="M9 15.5C11.6852 15.5 14.1905 14.9137 16.0784 13.8911C16.7684 13.5173 17.4248 13.0543 17.9747 12.5067C17.9915 12.6283 18 12.7511 18 12.875C18 15.5674 13.9706 17.75 9 17.75C4.02944 17.75 0 15.5674 0 12.875C0 12.7511 0.00853154 12.6283 0.0252937 12.5067C0.575227 13.0543 1.23162 13.5173 1.92161 13.8911C3.80949 14.9137 6.31481 15.5 9 15.5Z" fill="black" fill-opacity="0.2"/>
<path d="M9 19.25C11.6852 19.25 14.1905 18.6637 16.0784 17.6411C16.7684 17.2673 17.4248 16.8043 17.9747 16.2567C17.9915 16.3783 18 16.5011 18 16.625C18 19.3174 13.9706 21.5 9 21.5C4.02944 21.5 0 19.3174 0 16.625C0 16.5011 0.00853154 16.3783 0.0252937 16.2567C0.575227 16.8043 1.23162 17.2673 1.92161 17.6411C3.80949 18.6637 6.31481 19.25 9 19.25Z" fill="#9EFF00"/>
<path d="M9 19.25C11.6852 19.25 14.1905 18.6637 16.0784 17.6411C16.7684 17.2673 17.4248 16.8043 17.9747 16.2567C17.9915 16.3783 18 16.5011 18 16.625C18 19.3174 13.9706 21.5 9 21.5C4.02944 21.5 0 19.3174 0 16.625C0 16.5011 0.00853154 16.3783 0.0252937 16.2567C0.575227 16.8043 1.23162 17.2673 1.92161 17.6411C3.80949 18.6637 6.31481 19.25 9 19.25Z" fill="black" fill-opacity="0.2"/>
</svg>
