<svg width="40" height="40" viewBox="0 0 40 40" fill="none" xmlns="http://www.w3.org/2000/svg">
<path d="M15.285 22.7297C15.285 22.5887 15.3571 22.4618 15.4724 22.3207L21.4275 14.9989C21.8744 14.4346 22.6242 14.8155 22.3647 15.5068L20.4037 20.656H24.0806C24.3546 20.656 24.5997 20.8675 24.5997 21.1216C24.5997 21.2626 24.5276 21.4178 24.3978 21.5447L18.4572 28.8523C18.0102 29.4167 17.2459 29.0358 17.5056 28.3586L19.4809 23.1953H15.7896C15.5157 23.1953 15.285 22.9978 15.285 22.7297ZM7.52757 32.9717H32.4724C35.5005 32.9717 37 31.5187 37 28.6125V14.9707C37 12.0646 35.5005 10.6115 32.4724 10.6115H30.4826V8.72111C30.4826 7.64894 29.8482 7 28.738 7H24.4843C23.3885 7 22.7541 7.64894 22.7541 8.72111V10.6115H17.2603V8.72111C17.2603 7.64894 16.6259 7 15.5157 7H11.2621C10.1518 7 9.53181 7.64894 9.53181 8.72111V10.6115H7.52757C4.514 10.6115 3 12.0646 3 14.9707V28.6125C3 31.5187 4.514 32.9717 7.52757 32.9717Z" fill="#9EFF00"/>
<path d="M15.285 22.7297C15.285 22.5887 15.3571 22.4618 15.4724 22.3207L21.4275 14.9989C21.8744 14.4346 22.6242 14.8155 22.3647 15.5068L20.4037 20.656H24.0806C24.3546 20.656 24.5997 20.8675 24.5997 21.1216C24.5997 21.2626 24.5276 21.4178 24.3978 21.5447L18.4572 28.8523C18.0102 29.4167 17.2459 29.0358 17.5056 28.3586L19.4809 23.1953H15.7896C15.5157 23.1953 15.285 22.9978 15.285 22.7297ZM7.52757 32.9717H32.4724C35.5005 32.9717 37 31.5187 37 28.6125V14.9707C37 12.0646 35.5005 10.6115 32.4724 10.6115H30.4826V8.72111C30.4826 7.64894 29.8482 7 28.738 7H24.4843C23.3885 7 22.7541 7.64894 22.7541 8.72111V10.6115H17.2603V8.72111C17.2603 7.64894 16.6259 7 15.5157 7H11.2621C10.1518 7 9.53181 7.64894 9.53181 8.72111V10.6115H7.52757C4.514 10.6115 3 12.0646 3 14.9707V28.6125C3 31.5187 4.514 32.9717 7.52757 32.9717Z" fill="black" fill-opacity="0.2"/>
</svg>
