<svg width="20" height="20" viewBox="0 0 20 20" fill="none" xmlns="http://www.w3.org/2000/svg">
<path fill-rule="evenodd" clip-rule="evenodd" d="M15.5972 5.08403C15.8409 5.2372 15.9068 5.54764 15.7443 5.7774L9.38069 14.7773C9.29256 14.902 9.14981 14.9828 8.99171 14.9976C8.83361 15.0123 8.67682 14.9595 8.56447 14.8536L4.32207 10.8536C4.11497 10.6583 4.11497 10.3417 4.32207 10.1465C4.52916 9.95121 4.86493 9.95121 5.07203 10.1465L8.85703 13.7152L14.8618 5.2227C15.0243 4.99294 15.3535 4.93085 15.5972 5.08403Z" fill="#9EFF00"/>
<path fill-rule="evenodd" clip-rule="evenodd" d="M15.5972 5.08403C15.8409 5.2372 15.9068 5.54764 15.7443 5.7774L9.38069 14.7773C9.29256 14.902 9.14981 14.9828 8.99171 14.9976C8.83361 15.0123 8.67682 14.9595 8.56447 14.8536L4.32207 10.8536C4.11497 10.6583 4.11497 10.3417 4.32207 10.1465C4.52916 9.95121 4.86493 9.95121 5.07203 10.1465L8.85703 13.7152L14.8618 5.2227C15.0243 4.99294 15.3535 4.93085 15.5972 5.08403Z" fill="black" fill-opacity="0.2"/>
</svg>
