<svg width="178" height="60" viewBox="0 0 178 60" fill="none" xmlns="http://www.w3.org/2000/svg">
<rect width="60.2817" height="60" rx="9.37716" fill="#9EFF00"/>
<path d="M10.9858 18.7123L30.1408 30L30.1408 51.5493L10.9858 40.6036L10.9858 18.7123Z" fill="#1A1A1A"/>
<path fill-rule="evenodd" clip-rule="evenodd" d="M31.8309 29.9849V48.6369L47.6056 39.6228V20.6891L31.8309 29.9849ZM49.2957 40.6036L30.1408 51.5493V30L10.9858 18.7123L30.1408 8.45068L49.2957 18.7123V40.6036ZM46.7195 19.2495L30.1408 10.3681L14.434 18.7824L30.973 28.5287L46.7195 19.2495Z" fill="#1A1A1A"/>
<path d="M76.6068 20C79.6377 20 81.9331 21.6491 82.5125 24.3011L79.4817 24.9251C79.2588 23.5211 78.0331 22.6074 76.54 22.6074C75.0245 22.6074 74.1108 23.4543 74.1108 24.4571C74.1108 25.2149 74.4451 25.7497 75.604 25.9726L78.8131 26.6189C81.2422 27.1314 82.7354 28.58 82.7354 30.8977C82.7354 33.7949 80.3508 35.6 76.8074 35.6C73.6874 35.6 70.9462 34.1514 70.5674 31.1651L73.7542 30.5189C74.1554 32.2126 75.4034 32.948 77.0971 32.948C78.8354 32.948 79.7491 32.1234 79.7491 31.0537C79.7491 30.2069 79.348 29.6943 78.0108 29.4269L74.8462 28.8251C73.0634 28.4463 70.924 27.4657 70.924 24.5463C70.924 21.872 73.108 20 76.6068 20Z" fill="white"/>
<path d="M96.5887 24.1451V39.0543H93.647V34.3966C92.711 35.1543 91.4853 35.6 89.9699 35.6C87.1396 35.6 84.5099 33.2154 84.5099 29.7166C84.5099 26.2177 87.1396 23.8109 89.9699 23.8109C91.4853 23.8109 92.711 24.2566 93.647 25.0366V24.1451H96.5887ZM90.4825 33.0371C92.0647 33.0371 93.647 31.7669 93.647 29.7166C93.647 27.6663 92.0647 26.3737 90.4825 26.3737C88.6996 26.3737 87.3625 27.6663 87.3625 29.7166C87.3625 31.7669 88.6996 33.0371 90.4825 33.0371Z" fill="white"/>
<path d="M110.199 24.1451V35.2657H107.257V34.2629C106.388 35.132 105.229 35.6 103.758 35.6C101.084 35.6 99.3013 33.6834 99.3013 30.92V24.1451H102.243V30.296C102.243 31.856 103.134 32.9034 104.494 32.9034C106.165 32.9034 107.257 31.7891 107.257 29.0703V24.1451H110.199Z" fill="white"/>
<path d="M124.511 24.1451V35.2657H121.569V34.3966C120.633 35.1543 119.408 35.6 117.892 35.6C115.062 35.6 112.432 33.2154 112.432 29.7166C112.432 26.2177 115.062 23.8109 117.892 23.8109C119.408 23.8109 120.633 24.2566 121.569 25.0366V24.1451H124.511ZM118.405 33.0371C119.987 33.0371 121.569 31.7669 121.569 29.7166C121.569 27.6663 119.987 26.3737 118.405 26.3737C116.622 26.3737 115.285 27.6663 115.285 29.7166C115.285 31.7669 116.622 33.0371 118.405 33.0371Z" fill="white"/>
<path d="M134.553 23.9891C134.843 23.9891 135.066 23.9891 135.333 24.0783L135.177 26.9086H134.531C131.812 26.9086 130.564 28.58 130.564 31.6777V35.2657H127.622V24.1451H130.564V26.1731C131.455 24.8806 132.748 23.9891 134.553 23.9891Z" fill="white"/>
<path d="M147.564 29.4937V30.4966H139.096C139.385 32.1011 140.522 33.0817 141.881 33.0817C142.75 33.0817 143.842 32.9703 144.645 31.6109L147.274 32.168C146.294 34.4857 144.31 35.6 141.881 35.6C138.739 35.6 136.176 33.2154 136.176 29.7166C136.176 26.2177 138.739 23.8109 141.926 23.8109C144.89 23.8109 147.453 26.1063 147.564 29.4937ZM141.926 26.3737C140.812 26.3737 139.541 27.0423 139.185 28.424H144.556C144.177 26.9977 143.107 26.3737 141.926 26.3737Z" fill="white"/>
<path d="M162.658 20.3343V28.58C162.658 32.7697 160.095 35.6 156.24 35.6C152.295 35.6 149.665 32.7697 149.665 28.58V20.3343H152.696V28.58C152.696 31.076 154.1 32.7029 156.24 32.7029C158.268 32.7029 159.627 31.076 159.627 28.58V20.3343H162.658Z" fill="white"/>
<path d="M172.262 23.8109C175.092 23.8109 177.722 26.2177 177.722 29.7166C177.722 33.2154 175.092 35.6 172.262 35.6C170.746 35.6 169.521 35.1543 168.585 34.3966V39.0543H165.643V24.1451H168.585V25.0366C169.521 24.2566 170.746 23.8109 172.262 23.8109ZM171.749 33.0371C173.532 33.0371 174.869 31.7669 174.869 29.7166C174.869 27.6663 173.532 26.3737 171.749 26.3737C170.167 26.3737 168.585 27.6663 168.585 29.7166C168.585 31.7669 170.167 33.0371 171.749 33.0371Z" fill="white"/>
</svg>
