<svg width="34" height="34" viewBox="0 0 34 34" fill="none" xmlns="http://www.w3.org/2000/svg">
<path d="M18.275 8.0748C18.275 7.37064 17.7042 6.7998 17 6.7998C16.2959 6.7998 15.725 7.37064 15.725 8.0748V15.7248H8.07505C7.37089 15.7248 6.80005 16.2956 6.80005 16.9998C6.80005 17.704 7.37089 18.2748 8.07505 18.2748L15.725 18.2748V25.9248C15.725 26.629 16.2959 27.1998 17 27.1998C17.7042 27.1998 18.275 26.629 18.275 25.9248V18.2748L25.925 18.2748C26.6292 18.2748 27.2 17.704 27.2 16.9998C27.2 16.2956 26.6292 15.7248 25.925 15.7248H18.275V8.0748Z" fill="white"/>
</svg>
