<svg width="34" height="34" viewBox="0 0 34 34" fill="none" xmlns="http://www.w3.org/2000/svg">
<path d="M10.6766 8.87344C10.1786 8.37552 9.37136 8.37552 8.87344 8.87344C8.37552 9.37136 8.37552 10.1786 8.87344 10.6766L15.1969 17L8.87344 23.3234C8.37552 23.8214 8.37552 24.6286 8.87344 25.1266C9.37136 25.6245 10.1786 25.6245 10.6766 25.1266L17 18.8031L23.3234 25.1266C23.8214 25.6245 24.6286 25.6245 25.1266 25.1266C25.6245 24.6286 25.6245 23.8214 25.1266 23.3234L18.8031 17L25.1266 10.6766C25.6245 10.1786 25.6245 9.37136 25.1266 8.87344C24.6286 8.37552 23.8214 8.37552 23.3234 8.87344L17 15.1969L10.6766 8.87344Z" fill="#C5FF66"/>
</svg>
